<?xml version="1.0" encoding="iso-8859-1"?>
<!-- Generator: Adobe Illustrator 19.0.0, SVG Export Plug-In . SVG Version: 6.00 Build 0)  -->
<svg version="1.1" id="Capa_1" xmlns="http://www.w3.org/2000/svg" xmlns:xlink="http://www.w3.org/1999/xlink" x="0px" y="0px"
	 viewBox="0 0 512 512" style="enable-background:new 0 0 512 512;" xml:space="preserve">
<polygon style="fill:#00448F;" points="448.341,212.139 457.045,246.272 452.267,247.467 54.613,247.467 63.659,212.139 
	68.267,213.333 443.733,213.333 "/>
<polygon style="fill:#DAEFF6;" points="448.341,212.139 443.733,213.333 68.267,213.333 63.659,212.139 85.333,128 119.467,128 
	119.467,162.133 238.933,162.133 238.933,128 273.067,128 273.067,162.133 392.533,162.133 392.533,128 426.667,128 "/>
<g>
	<polygon style="fill:#168DE2;" points="426.667,8.533 426.667,128 392.533,128 392.533,85.333 273.067,85.333 273.067,128 
		238.933,128 238.933,85.333 119.467,85.333 119.467,128 85.333,128 85.333,8.533 	"/>
	<polygon style="fill:#168DE2;" points="503.467,426.667 503.467,503.467 8.533,503.467 8.533,426.667 10.155,420.523 
		34.133,426.667 230.4,426.667 247.467,426.667 264.533,426.667 281.6,426.667 477.867,426.667 501.845,420.523 	"/>
</g>
<polygon style="fill:#62BEFF;" points="457.045,246.272 501.845,420.523 477.867,426.667 281.6,426.667 264.533,426.667 
	247.467,426.667 230.4,426.667 34.133,426.667 10.155,420.523 54.613,247.467 452.267,247.467 "/>
<g>
	<polygon style="fill:#F9B544;" points="392.533,128 392.533,162.133 273.067,162.133 273.067,128 273.067,85.333 392.533,85.333 	
		"/>
	<polygon style="fill:#F9B544;" points="238.933,128 238.933,162.133 119.467,162.133 119.467,128 119.467,85.333 238.933,85.333 	
		"/>
</g>
<path d="M8.533,512h494.933c4.71,0,8.533-3.823,8.533-8.533v-76.8c0-0.717-0.094-1.434-0.273-2.125L435.2,126.925V8.533
	c0-4.71-3.823-8.533-8.533-8.533H85.333C80.623,0,76.8,3.823,76.8,8.533v118.391L0.273,424.542C0.094,425.233,0,425.95,0,426.667
	v76.8C0,508.177,3.823,512,8.533,512z M93.867,17.067h324.267v102.4h-17.067V85.333c0-4.71-3.823-8.533-8.533-8.533H273.067
	c-4.71,0-8.533,3.823-8.533,8.533v34.133h-17.067V85.333c0-4.71-3.823-8.533-8.533-8.533H119.467c-4.71,0-8.533,3.823-8.533,8.533
	v34.133H93.867V17.067z M384,93.867V153.6H281.6V93.867H384z M230.4,93.867V153.6H128V93.867H230.4z M91.947,136.533h18.987v25.6
	c0,4.71,3.823,8.533,8.533,8.533h119.467c4.71,0,8.533-3.823,8.533-8.533v-25.6h17.067v25.6c0,4.71,3.823,8.533,8.533,8.533h119.467
	c4.71,0,8.533-3.823,8.533-8.533v-25.6h18.987l17.553,68.267H74.394L91.947,136.533z M69.973,221.867h372.053l4.386,17.067H65.621
	L69.973,221.867z M17.067,427.742L61.227,256h389.547l44.16,171.742v67.191H17.067V427.742z"/>
<rect x="281.6" y="418.133" width="196.267" height="17.067"/>
<rect x="247.467" y="418.133" width="17.067" height="17.067"/>
<rect x="34.133" y="418.133" width="196.267" height="17.067"/>
<g>
</g>
<g>
</g>
<g>
</g>
<g>
</g>
<g>
</g>
<g>
</g>
<g>
</g>
<g>
</g>
<g>
</g>
<g>
</g>
<g>
</g>
<g>
</g>
<g>
</g>
<g>
</g>
<g>
</g>
</svg>
