<?xml version="1.0" encoding="iso-8859-1"?>
<!-- Generator: Adobe Illustrator 19.0.0, SVG Export Plug-In . SVG Version: 6.00 Build 0)  -->
<svg version="1.1" id="Capa_1" xmlns="http://www.w3.org/2000/svg" xmlns:xlink="http://www.w3.org/1999/xlink" x="0px" y="0px"
	 viewBox="0 0 512 512" style="enable-background:new 0 0 512 512;" xml:space="preserve">
<path style="fill:#B5B5B5;" d="M469.333,147.628l34.133,34.133v307.2H290.133c-18.85,18.85-49.417,18.85-68.267,0H8.533v-307.2
	l34.133-34.133H469.333z"/>
<g>
	<rect x="42.667" y="147.628" style="fill:#EBEBEB;" width="213.333" height="307.2"/>
	<rect x="256" y="147.628" style="fill:#EBEBEB;" width="213.333" height="307.2"/>
</g>
<rect x="358.4" y="318.294" style="fill:#FFCF6D;" width="76.8" height="68.267"/>
<g>
	<rect x="341.333" y="173.228" style="fill:#6F6F6F;" width="102.4" height="17.067"/>
	<rect x="281.6" y="207.361" style="fill:#6F6F6F;" width="162.133" height="17.067"/>
	<rect x="281.6" y="241.494" style="fill:#6F6F6F;" width="76.8" height="17.067"/>
	<rect x="281.6" y="275.628" style="fill:#6F6F6F;" width="110.933" height="17.067"/>
	<rect x="281.6" y="412.161" style="fill:#6F6F6F;" width="162.133" height="17.067"/>
	<rect x="281.6" y="309.761" style="fill:#6F6F6F;" width="51.2" height="17.067"/>
	<rect x="281.6" y="343.894" style="fill:#6F6F6F;" width="51.2" height="17.067"/>
	<rect x="281.6" y="378.028" style="fill:#6F6F6F;" width="51.2" height="17.067"/>
	<rect x="128" y="173.228" style="fill:#6F6F6F;" width="102.4" height="17.067"/>
	<rect x="68.267" y="207.361" style="fill:#6F6F6F;" width="162.133" height="17.067"/>
	<rect x="162.133" y="241.494" style="fill:#6F6F6F;" width="68.267" height="17.067"/>
	<rect x="128" y="241.494" style="fill:#6F6F6F;" width="17.067" height="17.067"/>
	<rect x="68.267" y="241.494" style="fill:#6F6F6F;" width="42.667" height="17.067"/>
	<rect x="68.267" y="275.628" style="fill:#6F6F6F;" width="102.4" height="17.067"/>
	<rect x="128" y="309.761" style="fill:#6F6F6F;" width="102.4" height="17.067"/>
	<rect x="102.4" y="343.894" style="fill:#6F6F6F;" width="128" height="17.067"/>
	<rect x="102.4" y="378.028" style="fill:#6F6F6F;" width="128" height="17.067"/>
	<rect x="102.4" y="412.161" style="fill:#6F6F6F;" width="128" height="17.067"/>
	<rect x="375.467" y="241.494" style="fill:#6F6F6F;" width="68.267" height="17.067"/>
	<rect x="68.267" y="343.894" style="fill:#6F6F6F;" width="17.067" height="17.067"/>
	<rect x="68.267" y="378.028" style="fill:#6F6F6F;" width="17.067" height="17.067"/>
	<rect x="68.267" y="412.161" style="fill:#6F6F6F;" width="17.067" height="17.067"/>
</g>
<g>
	<path style="fill:#DAEFF6;" d="M159.659,34.561c22.101,0.094,39.945,18.091,39.851,40.192
		c-0.094,22.101-18.091,39.945-40.192,39.851s-39.945-18.091-39.851-40.192c0.094-21.973,17.877-39.757,39.851-39.851H159.659z"/>
	<path style="fill:#DAEFF6;" d="M275.883,34.561c21.982-0.026,39.825,17.783,39.851,39.765
		c0.026,21.982-17.783,39.825-39.765,39.851c-21.982,0.026-39.825-17.783-39.851-39.765
		C236.109,52.438,253.909,34.604,275.883,34.561z"/>
</g>
<g>
	<path style="fill:#5B5B5B;" d="M275.883,122.71c-26.701-0.026-48.324-21.683-48.299-48.384s21.683-48.324,48.384-48.299
		c26.701,0.026,48.324,21.683,48.299,48.384C324.241,101.104,302.575,122.727,275.883,122.71z M275.883,43.094
		c-17.271,0.026-31.258,14.046-31.232,31.317s14.046,31.258,31.317,31.232c17.237-0.026,31.206-13.995,31.232-31.232
		c0.009-17.289-14.012-31.309-31.3-31.317C275.891,43.094,275.891,43.094,275.883,43.094z"/>
	<path style="fill:#5B5B5B;" d="M159.317,122.71c-26.701,0-48.341-21.641-48.341-48.341s21.641-48.341,48.341-48.341h0.41
		c26.701,0.111,48.247,21.845,48.137,48.546C207.753,101.275,186.018,122.821,159.317,122.71z M159.317,43.094
		c-17.161,0.085-31.01,14.071-30.925,31.232c0.085,17.161,14.071,31.01,31.232,30.925s31.01-14.071,30.925-31.232
		c-0.085-17.041-13.884-30.839-30.925-30.925C159.625,43.094,159.317,43.094,159.317,43.094z"/>
	<rect x="199.083" y="65.878" style="fill:#5B5B5B;" width="37.035" height="17.067"/>
	<path style="fill:#5B5B5B;" d="M162.987,42.762l-10.419-13.5l30.515-23.177c11.059-8.141,26.359-7.168,36.292,2.313
		c5.257,5.197,8.218,12.288,8.209,19.678v7.936h-17.067v-7.936c0-2.825-1.126-5.538-3.132-7.535
		c-3.857-3.635-9.762-3.994-14.029-0.853L162.987,42.762z"/>
	<path style="fill:#5B5B5B;" d="M318.549,62.294l-11.093-12.971l50.176-42.923c11.964-9.506,29.372-7.509,38.878,4.454
		c3.891,4.898,6.007,10.965,6.007,17.22v7.936h-17.067v-7.936c0-2.825-1.126-5.538-3.132-7.535
		c-3.857-3.635-9.762-3.994-14.029-0.853L318.549,62.294z"/>
</g>
<path d="M475.375,141.603c-1.596-1.613-3.772-2.517-6.042-2.509H42.667c-2.27-0.009-4.446,0.896-6.042,2.509L2.492,175.737
	C0.896,177.332,0,179.5,0,181.761v307.2c0,4.71,3.823,8.533,8.533,8.533h209.963c21.461,18.816,53.547,18.816,75.008,0h209.963
	c4.71,0,8.533-3.823,8.533-8.533v-307.2c0-2.261-0.896-4.437-2.5-6.033L475.375,141.603z M264.533,156.161H460.8v290.133H264.533
	V156.161z M51.2,156.161h196.267v290.133H51.2V156.161z M494.933,480.428h-204.8c-2.261,0-4.437,0.896-6.033,2.5
	c-15.531,15.488-40.67,15.488-56.201,0c-1.596-1.604-3.772-2.5-6.033-2.5h-204.8V185.294l17.067-17.067v286.601
	c0,4.71,3.823,8.533,8.533,8.533h426.667c4.71,0,8.533-3.823,8.533-8.533V168.227l17.067,17.067V480.428z"/>
<rect x="341.333" y="173.228" width="102.4" height="17.067"/>
<rect x="281.6" y="207.361" width="162.133" height="17.067"/>
<rect x="281.6" y="241.494" width="76.8" height="17.067"/>
<rect x="281.6" y="275.628" width="110.933" height="17.067"/>
<rect x="281.6" y="412.161" width="162.133" height="17.067"/>
<rect x="281.6" y="309.761" width="51.2" height="17.067"/>
<rect x="281.6" y="343.894" width="51.2" height="17.067"/>
<rect x="281.6" y="378.028" width="51.2" height="17.067"/>
<path d="M435.2,309.761h-76.8c-4.71,0-8.533,3.823-8.533,8.533v68.267c0,4.71,3.823,8.533,8.533,8.533h76.8
	c4.71,0,8.533-3.823,8.533-8.533v-68.267C443.733,313.584,439.91,309.761,435.2,309.761z M426.667,378.028h-59.733v-51.2h59.733
	V378.028z"/>
<rect x="128" y="173.228" width="102.4" height="17.067"/>
<rect x="68.267" y="207.361" width="162.133" height="17.067"/>
<rect x="162.133" y="241.494" width="68.267" height="17.067"/>
<rect x="128" y="241.494" width="17.067" height="17.067"/>
<rect x="68.267" y="241.494" width="42.667" height="17.067"/>
<rect x="68.267" y="275.628" width="102.4" height="17.067"/>
<rect x="128" y="309.761" width="102.4" height="17.067"/>
<rect x="102.4" y="343.894" width="128" height="17.067"/>
<rect x="102.4" y="378.028" width="128" height="17.067"/>
<rect x="102.4" y="412.161" width="128" height="17.067"/>
<rect x="375.467" y="241.494" width="68.267" height="17.067"/>
<rect x="68.267" y="343.894" width="17.067" height="17.067"/>
<rect x="68.267" y="378.028" width="17.067" height="17.067"/>
<rect x="68.267" y="412.161" width="17.067" height="17.067"/>
<path d="M159.292,122.736c23.39-0.043,43.401-16.802,47.548-39.817h21.521c4.685,26.274,29.781,43.776,56.055,39.091
	c26.274-4.685,43.776-29.781,39.091-56.055c-0.393-2.21-0.939-4.386-1.638-6.528l46.515-39.799
	c4.659-3.567,11.315-2.679,14.882,1.98c1.417,1.86,2.185,4.13,2.185,6.468v7.936h17.067v-7.936
	c-0.034-15.283-12.425-27.648-27.708-27.648c-6.212,0.043-12.237,2.142-17.135,5.973l-44.126,37.717
	c-16.691-20.796-47.078-24.124-67.874-7.433c-9.114,7.313-15.266,17.69-17.314,29.193h-21.521
	c-2.825-15.607-13.107-28.843-27.537-35.43l14.148-10.82c4.659-3.567,11.315-2.679,14.882,1.98c1.417,1.86,2.185,4.13,2.185,6.468
	v7.936h17.067v-7.936c0-15.292-12.39-27.682-27.682-27.682c-6.05,0-11.938,1.988-16.759,5.649l-26.436,20.113
	c-26.65,1.417-47.104,24.175-45.687,50.825c1.365,25.651,22.562,45.756,48.247,45.756
	C159.266,122.736,159.292,122.736,159.292,122.736z M275.908,43.094c17.28-0.009,31.292,14.003,31.3,31.283
	c0.009,17.28-14.003,31.292-31.283,31.3s-31.292-14.003-31.3-31.283v-0.009C244.642,57.115,258.637,43.12,275.908,43.094z
	 M159.292,43.094c17.28,0,31.292,14.012,31.292,31.292s-14.012,31.292-31.292,31.292S128,91.666,128,74.386l0,0
	C128.017,57.115,142.02,43.111,159.292,43.094z"/>
<g>
</g>
<g>
</g>
<g>
</g>
<g>
</g>
<g>
</g>
<g>
</g>
<g>
</g>
<g>
</g>
<g>
</g>
<g>
</g>
<g>
</g>
<g>
</g>
<g>
</g>
<g>
</g>
<g>
</g>
</svg>
