<svg xmlns="http://www.w3.org/2000/svg" viewBox="0 0 35 80.6">
  <g id="Layer_2" data-name="Layer 2">
    <g id="Layer_1-2" data-name="Layer 1">
      <g>
        <path d="M7.5,85.2v-15h5v9.5h9.2V72.1h5v7.6H37.5V70.2h5v15Z" transform="translate(-7.5 -4.5)"/>
        <path d="M7.5,66V60.4l27.1-3.6h0L7.5,53.1v-5l35,5.3v7.3Z" transform="translate(-7.5 -4.5)"/>
        <path d="M7.5,40.1V32.6l35-5.7v5.5l-7,1h.1v6.3l6.9,1v5.1Zm23.4-6L13.6,36.5h0L30.9,39Z" transform="translate(-7.5 -4.5)"/>
        <path d="M7.5,21.8V14.9L28.4,9.5H7.5V4.5h35v5.7L16.9,16.8H42.5v4.9Z" transform="translate(-7.5 -4.5)"/>
      </g>
    </g>
  </g>
</svg>
