<?xml version="1.0" encoding="iso-8859-1"?>
<!-- Generator: Adobe Illustrator 19.0.0, SVG Export Plug-In . SVG Version: 6.00 Build 0)  -->
<svg version="1.1" id="Capa_1" xmlns="http://www.w3.org/2000/svg" xmlns:xlink="http://www.w3.org/1999/xlink" x="0px" y="0px"
	 viewBox="0 0 512 512" style="enable-background:new 0 0 512 512;" xml:space="preserve">
<path style="fill:#62BEFF;" d="M281.6,72.533c60.382,0.043,116.25,31.974,146.944,83.968c-16.546-3.038-31.846-10.837-44.032-22.443
	c-3.584-3.413-7.339-6.656-11.179-9.643c-28.493-22.665-63.855-34.944-100.267-34.816h-34.133
	c-36.412-0.128-71.774,12.151-100.267,34.816c-3.84,3.072-7.595,6.315-11.179,9.643c-12.186,11.605-27.486,19.405-44.032,22.443
	c30.694-51.994,86.562-83.925,146.944-83.968H281.6z"/>
<g>
	<path style="fill:#002874;" d="M469.333,243.2V448h-17.067V243.2c0.026-23.561-4.864-46.865-14.336-68.437
		c1.963,0.085,3.84,0.171,5.803,0.171v-17.067l3.925-2.048C461.935,182.733,469.376,212.736,469.333,243.2z"/>
	<path style="fill:#002874;" d="M443.733,157.867v17.067c-1.963,0-3.84-0.085-5.803-0.171c-2.739-6.281-5.871-12.382-9.387-18.261
		C433.553,157.431,438.639,157.884,443.733,157.867z"/>
	<path style="fill:#002874;" d="M384.512,134.059c12.186,11.605,27.486,19.405,44.032,22.443c3.516,5.879,6.647,11.981,9.387,18.261
		c-24.397-1.442-47.497-11.477-65.195-28.331c-3.157-2.987-6.571-5.888-9.984-8.619c-25.481-20.275-57.122-31.266-89.685-31.147
		h-34.133c-32.563-0.119-64.205,10.871-89.685,31.147c-3.499,2.731-6.827,5.632-9.984,8.619
		c-17.69,16.87-40.789,26.906-65.195,28.331c2.739-6.281,5.871-12.382,9.387-18.261c16.546-3.038,31.846-10.837,44.032-22.443
		c3.584-3.328,7.339-6.571,11.179-9.643c28.493-22.665,63.855-34.944,100.267-34.816h34.133
		c36.412-0.128,71.774,12.151,100.267,34.816C377.173,127.403,380.928,130.645,384.512,134.059z"/>
	<path style="fill:#002874;" d="M281.6,55.467c69.683,0.06,133.606,38.69,166.059,100.352l-3.925,2.048
		c-5.094,0.017-10.18-0.435-15.189-1.365C397.85,104.508,341.982,72.576,281.6,72.533h-51.2
		c-60.382,0.043-116.25,31.974-146.944,83.968c-5.009,0.93-10.095,1.382-15.189,1.365l-3.925-2.048
		C96.794,94.157,160.717,55.526,230.4,55.467H281.6z"/>
	<path style="fill:#002874;" d="M83.456,156.501c-3.516,5.879-6.647,11.981-9.387,18.261c-1.963,0.085-3.84,0.171-5.803,0.171
		v-17.067C73.361,157.884,78.447,157.431,83.456,156.501z"/>
	<path style="fill:#002874;" d="M68.267,174.933c1.963,0,3.84-0.085,5.803-0.171c-9.472,21.572-14.362,44.877-14.336,68.437V448
		H42.667V243.2c-0.043-30.464,7.398-60.467,21.675-87.381l3.925,2.048V174.933z"/>
	<path style="fill:#002874;" d="M452.267,302.933H486.4c9.429,0,17.067,7.637,17.067,17.067v110.933
		c0,9.429-7.637,17.067-17.067,17.067h-34.133c-14.14,0-25.6-11.46-25.6-25.6v-93.867
		C426.667,314.394,438.127,302.933,452.267,302.933z"/>
	<path style="fill:#002874;" d="M25.6,302.933h34.133c14.14,0,25.6,11.46,25.6,25.6V422.4c0,14.14-11.46,25.6-25.6,25.6H25.6
		c-9.429,0-17.067-7.637-17.067-17.067V320C8.533,310.571,16.171,302.933,25.6,302.933z"/>
</g>
<g>
	<path style="fill:#FFCD61;" d="M166.246,452.164l-12.058-12.083c33.323-33.323,33.323-87.356,0-120.678l12.066-12.066
		c39.996,39.987,39.996,104.823,0.009,144.819C166.263,452.156,166.255,452.164,166.246,452.164L166.246,452.164z"/>
	<path style="fill:#FFCD61;" d="M142.123,428.015l-12.066-12.066c19.994-19.994,20.002-52.412,0.009-72.405c0,0,0,0-0.009-0.009
		l12.066-12.066C168.781,358.127,168.781,401.348,142.123,428.015L142.123,428.015z"/>
	<path style="fill:#FFCD61;" d="M117.999,403.866l-12.066-12.066c6.665-6.665,6.665-17.468,0-24.132l12.066-12.066
		C131.328,368.93,131.328,390.537,117.999,403.866z"/>
	<path style="fill:#FFCD61;" d="M345.754,452.164c-39.996-39.987-39.996-104.823-0.009-144.819l0.009-0.009l12.066,12.066
		c-33.323,33.323-33.323,87.356,0,120.678L345.754,452.164z"/>
	<path style="fill:#FFCD61;" d="M369.877,428.015c-26.658-26.658-26.658-69.879,0-96.546l0,0l12.066,12.066
		c-19.994,19.994-20.002,52.412-0.009,72.405c0,0,0,0,0.009,0.009L369.877,428.015z"/>
	<path style="fill:#FFCD61;" d="M394.001,403.866c-13.329-13.329-13.329-34.935,0-48.265l12.066,12.066
		c-6.665,6.665-6.665,17.468,0,24.132L394.001,403.866z"/>
</g>
<rect x="247.467" y="55.467" width="17.067" height="17.067"/>
<path d="M486.4,456.533c14.14,0,25.6-11.46,25.6-25.6V320c0-14.14-11.46-25.6-25.6-25.6h-17.067v-51.2
	C469.214,139.563,385.237,55.586,281.6,55.467v17.067c60.288,0.077,116.062,31.966,146.697,83.891
	c-16.461-3.046-31.676-10.82-43.793-22.366c-3.584-3.413-7.33-6.622-11.145-9.634c-28.51-22.665-63.881-34.944-100.292-34.825
	h-34.133c-36.412-0.119-71.782,12.16-100.292,34.825c-3.84,3.029-7.586,6.263-11.145,9.643
	c-12.117,11.546-27.332,19.319-43.793,22.357c30.635-51.925,86.409-83.814,146.697-83.891V55.467
	C126.763,55.586,42.786,139.563,42.667,243.2v51.2H25.6C11.46,294.4,0,305.86,0,320v110.933c0,14.14,11.46,25.6,25.6,25.6h34.133
	c18.85,0,34.133-15.283,34.133-34.133v-93.867c0-18.85-15.283-34.133-34.133-34.133v-51.2c0.009-23.612,4.949-46.959,14.507-68.548
	c24.32-1.391,47.36-11.375,65.007-28.16c3.191-3.012,6.545-5.922,9.984-8.636c25.489-20.275,57.131-31.275,89.702-31.189h34.133
	c32.58-0.102,64.222,10.889,89.728,31.155c3.413,2.697,6.767,5.598,9.975,8.627c17.647,16.794,40.67,26.786,64.99,28.203
	c9.557,21.589,14.498,44.937,14.507,68.548v51.2c-18.85,0-34.133,15.283-34.133,34.133V422.4c0,18.85,15.283,34.133,34.133,34.133
	H486.4z M42.667,439.467H25.6c-4.71,0-8.533-3.823-8.533-8.533V320c0-4.71,3.823-8.533,8.533-8.533h17.067V439.467z M76.8,328.533
	V422.4c0,9.429-7.637,17.067-17.067,17.067v-128C69.163,311.467,76.8,319.104,76.8,328.533z M469.333,311.467H486.4
	c4.71,0,8.533,3.823,8.533,8.533v110.933c0,4.71-3.823,8.533-8.533,8.533h-17.067V311.467z M435.2,422.4v-93.867
	c0-9.429,7.637-17.067,17.067-17.067v128C442.837,439.467,435.2,431.829,435.2,422.4z"/>
<path d="M166.281,307.337l-12.066,12.066c33.323,33.323,33.323,87.356,0,120.678l12.058,12.083
	c39.996-39.987,39.996-104.823,0.009-144.819C166.281,307.345,166.272,307.337,166.281,307.337L166.281,307.337z"/>
<path d="M142.123,428.015c26.658-26.658,26.658-69.879,0-96.546l0,0l-12.066,12.066c19.994,19.994,20.002,52.412,0.009,72.405
	c0,0,0,0-0.009,0.009L142.123,428.015z"/>
<path d="M117.999,403.866c13.329-13.329,13.329-34.935,0-48.265l-12.066,12.066c6.665,6.665,6.665,17.468,0,24.132L117.999,403.866z
	"/>
<path d="M357.811,440.081c-33.323-33.323-33.323-87.356,0-120.678l-12.066-12.066c-39.996,39.987-39.996,104.823-0.009,144.819
	l0.009,0.009L357.811,440.081z"/>
<path d="M381.926,343.535l-12.066-12.066c-26.658,26.658-26.658,69.879,0,96.546l0,0l12.066-12.066
	C361.933,395.955,361.924,363.537,381.926,343.535L381.926,343.535z"/>
<path d="M394.001,355.601c-13.329,13.329-13.329,34.935,0,48.265l12.066-12.066c-6.665-6.665-6.665-17.468,0-24.132L394.001,355.601
	z"/>
<g>
</g>
<g>
</g>
<g>
</g>
<g>
</g>
<g>
</g>
<g>
</g>
<g>
</g>
<g>
</g>
<g>
</g>
<g>
</g>
<g>
</g>
<g>
</g>
<g>
</g>
<g>
</g>
<g>
</g>
</svg>
