<?xml version="1.0" encoding="iso-8859-1"?>
<!-- Generator: Adobe Illustrator 19.0.0, SVG Export Plug-In . SVG Version: 6.00 Build 0)  -->
<svg version="1.1" id="Capa_1" xmlns="http://www.w3.org/2000/svg" xmlns:xlink="http://www.w3.org/1999/xlink" x="0px" y="0px"
	 viewBox="0 0 511.998 511.998" style="enable-background:new 0 0 511.998 511.998;" xml:space="preserve">
<path style="fill:#D03300;" d="M215.21,9.183c-7.069-0.188-13.514,4.029-16.169,10.586L179.824,66.27
	c139.683,15.589,249.879,125.964,265.237,265.672l47.807-19.703c6.582-2.655,10.808-9.126,10.603-16.22
	C496.616,139.978,371.275,15.261,215.21,9.183z"/>
<path style="fill:#F7CE00;" d="M179.824,66.27L9.971,477.123c-3.91,9.459,0.581,20.301,10.04,24.211
	c4.533,1.878,9.621,1.878,14.154,0.009l410.896-169.4C429.703,192.225,319.507,81.85,179.824,66.27z"/>
<g>
	<path style="fill:#7A0E1E;" d="M213.127,427.565c-19.021-27.694-11.977-65.564,15.717-84.585
		c27.694-19.021,65.564-11.977,84.585,15.717c4.849,7.069,8.161,15.085,9.698,23.52L213.127,427.565z"/>
	<path style="fill:#7A0E1E;" d="M164.978,102.176c31.058,12.84,45.818,48.422,32.987,79.471
		c-12.84,31.058-48.422,45.818-79.471,32.987L164.978,102.176z"/>
</g>
<g>
	<path style="fill:#F09221;" d="M237.662,216.863v22.598h38.417l-6.403,51.222h44.819l-6.403-51.222h40.551v-22.598
		c0-25.235-20.463-45.699-45.699-45.699l0,0h-19.584C258.126,171.164,237.662,191.619,237.662,216.863L237.662,216.863z"/>
	<path style="fill:#F09221;" d="M56.413,364.784l10.851-0.495l-3.116-18.21l8.998-21.778l9.903-1.707
		c24.877-4.269,48.499,12.438,52.767,37.315l0,0l3.304,19.302c4.269,24.877-12.438,48.499-37.315,52.767l0,0l-22.273,3.833
		l-6.83-39.97l-33.294,10.091L56.413,364.784z"/>
</g>
<g>
	<rect x="203.514" y="265.072" style="fill:#D03300;" width="17.074" height="17.074"/>
	<rect x="382.792" y="256.535" style="fill:#D03300;" width="17.074" height="17.074"/>
	<rect x="229.125" y="111.405" style="fill:#D03300;" width="17.074" height="17.074"/>
	<rect x="348.644" y="307.757" style="fill:#D03300;" width="17.074" height="17.074"/>
	<rect x="160.829" y="324.831" style="fill:#D03300;" width="17.074" height="17.074"/>
	<rect x="143.755" y="247.998" style="fill:#D03300;" width="17.074" height="17.074"/>
</g>
<path d="M215.534,0.654c-10.603-0.188-20.25,6.087-24.373,15.853L2.04,473.87c-5.694,13.881,0.939,29.752,14.82,35.446
	c3.184,1.306,6.582,1.998,10.022,2.032c3.62,0,7.197-0.717,10.535-2.117l458.695-189.095c9.903-4.038,16.237-13.83,15.87-24.518
	C504.214,135.471,375.715,7.62,215.534,0.654z M169.306,114.034c24.518,15.204,32.065,47.398,16.861,71.916
	c-11.798,19.029-34.421,28.42-56.233,23.34L169.306,114.034z M62.226,373.065l5.43-0.248c4.712-0.222,8.349-4.217,8.127-8.93
	c-0.017-0.35-0.051-0.7-0.111-1.042l-2.698-15.776l6.258-15.145l5.259-0.896c20.216-3.475,39.424,10.091,42.899,30.315
	c0,0.009,0,0.017,0.009,0.026l3.312,19.302c3.466,20.233-10.116,39.441-30.349,42.907l0,0l-13.864,2.373l-5.412-31.587
	c-0.794-4.644-5.208-7.769-9.86-6.966c-0.35,0.06-0.692,0.137-1.024,0.239l-16.024,4.858L62.226,373.065z M216.747,416.843
	c-13.13-25.662-2.979-57.113,22.683-70.243s57.113-2.979,70.243,22.683c1.298,2.544,2.39,5.182,3.261,7.905L216.747,416.843z
	 M328.863,370.624c-12.456-36.223-51.914-55.491-88.136-43.035s-55.491,51.914-43.035,88.136c0.896,2.612,1.955,5.173,3.159,7.666
	L30.964,493.446c-5.105,2.109-10.944-0.324-13.053-5.43c-1.007-2.442-1.007-5.182,0-7.624l0,0l27.89-67.443l20.096-6.164
	l5.216,30.435c0.794,4.644,5.208,7.769,9.852,6.975c0,0,0,0,0.009,0l22.273-3.816c29.521-5.062,49.344-33.098,44.282-62.619
	l-3.304-19.302c-4.712-27.515-29.555-46.954-57.394-44.922l36.513-88.341c36.889,10.151,75.023-11.534,85.165-48.422
	c8.418-30.597-5.028-62.995-32.629-78.643l9.322-22.563c130.369,17.945,232.805,120.569,250.519,250.972L328.863,370.624z
	 M489.607,304.342l-37.563,15.469C431.726,185.378,326.319,79.792,191.921,59.261l15.008-36.231
	c1.255-3.159,4.286-5.259,7.683-5.319h0.29c151.31,6.591,272.681,127.364,280.015,278.64
	C494.986,299.86,492.868,303.044,489.607,304.342z"/>
<path d="M302.945,162.627h-19.584c-29.939,0.034-54.202,24.296-54.236,54.236v22.598c0,4.712,3.825,8.537,8.537,8.537h28.744
	l-5.199,41.627c-0.581,4.678,2.732,8.947,7.41,9.527c0.35,0.043,0.7,0.068,1.059,0.068h44.819c4.712,0,8.537-3.825,8.537-8.537
	c0-0.35-0.026-0.709-0.068-1.059l-5.199-41.627h30.878c4.712,0,8.537-3.825,8.537-8.537v-22.598
	C357.147,186.924,332.884,162.661,302.945,162.627z M340.107,230.923h-32.014c-4.712,0-8.537,3.825-8.537,8.537
	c0,0.35,0.026,0.709,0.068,1.059l5.199,41.627h-25.475l5.199-41.627c0.581-4.678-2.732-8.947-7.41-9.527
	c-0.35-0.043-0.7-0.068-1.059-0.068h-29.88v-14.06c0.026-20.514,16.647-37.136,37.162-37.162h19.584
	c20.514,0.026,37.136,16.647,37.162,37.162V230.923z"/>
<rect x="203.514" y="265.072" width="17.074" height="17.074"/>
<rect x="382.792" y="256.535" width="17.074" height="17.074"/>
<rect x="229.125" y="111.405" width="17.074" height="17.074"/>
<rect x="348.644" y="307.757" width="17.074" height="17.074"/>
<rect x="160.829" y="324.831" width="17.074" height="17.074"/>
<rect x="143.755" y="247.998" width="17.074" height="17.074"/>
<g>
</g>
<g>
</g>
<g>
</g>
<g>
</g>
<g>
</g>
<g>
</g>
<g>
</g>
<g>
</g>
<g>
</g>
<g>
</g>
<g>
</g>
<g>
</g>
<g>
</g>
<g>
</g>
<g>
</g>
</svg>
