<?xml version="1.0" encoding="iso-8859-1"?>
<!-- Generator: Adobe Illustrator 19.0.0, SVG Export Plug-In . SVG Version: 6.00 Build 0)  -->
<svg version="1.1" id="Capa_1" xmlns="http://www.w3.org/2000/svg" xmlns:xlink="http://www.w3.org/1999/xlink" x="0px" y="0px"
	 viewBox="0 0 512 512" style="enable-background:new 0 0 512 512;" xml:space="preserve">
<path style="fill:#D6EAF1;" d="M384,128H128C62.02,128,8.533,181.487,8.533,247.467l0,0V256c0,18.85,15.283,34.133,34.133,34.133
	h17.067l-0.768,59.29c-0.247,18.85,14.839,34.33,33.69,34.577c0.145,0,0.299,0,0.444,0h333.568c18.85,0,34.133-15.283,34.133-34.133
	v-59.733h8.533c18.85,0,34.133-15.283,34.133-34.133v-8.533C503.467,181.487,449.98,128,384,128L384,128z"/>
<path style="fill:#D03300;" d="M8.533,247.467V256c0,18.85,15.283,34.133,34.133,34.133h20.429c19.226,0,37.171-9.609,47.838-25.6
	l0,0c10.667-15.991,28.612-25.6,47.838-25.6h185.924c19.226,0,45.713,9.609,56.371,25.6l0,0c10.667,15.991,28.612,25.6,47.838,25.6
	h20.429c18.85,0,34.133-15.283,34.133-34.133v-8.533C503.467,181.487,449.98,128,384,128l0,0H128
	C62.02,128,8.533,181.487,8.533,247.467L8.533,247.467z"/>
<g>
	
		<rect x="132.287" y="112.113" transform="matrix(-0.7071 0.7071 -0.7071 -0.7071 358.0714 184.5183)" style="fill:#FFA182;" width="17.067" height="108.611"/>
	
		<rect x="192.018" y="112.115" transform="matrix(-0.7071 0.7071 -0.7071 -0.7071 460.04 142.2866)" style="fill:#FFA182;" width="17.067" height="108.611"/>
	
		<rect x="251.749" y="112.135" transform="matrix(-0.7071 0.7071 -0.7071 -0.7071 562.0208 100.0841)" style="fill:#FFA182;" width="17.067" height="108.611"/>
	
		<rect x="311.488" y="112.137" transform="matrix(-0.7071 0.7071 -0.7071 -0.7071 664.0039 57.8464)" style="fill:#FFA182;" width="17.067" height="108.611"/>
	
		<rect x="371.219" y="112.14" transform="matrix(-0.7071 0.7071 -0.7071 -0.7071 765.9725 15.6148)" style="fill:#FFA182;" width="17.067" height="108.611"/>
</g>
<g>
	
		<rect x="402.78" y="319.962" transform="matrix(-0.5547 0.8321 -0.8321 -0.5547 923.4427 162.7628)" style="fill:#FFFFFF;" width="30.772" height="17.067"/>
	
		<rect x="200.01" y="281.587" transform="matrix(-0.2428 0.9701 -0.9701 -0.2428 551.8696 149.4645)" style="fill:#FFFFFF;" width="35.184" height="17.059"/>
	
		<rect x="293.879" y="324.279" transform="matrix(-0.2428 0.9701 -0.9701 -0.2428 709.9438 111.4607)" style="fill:#FFFFFF;" width="35.184" height="17.059"/>
	
		<rect x="93.874" y="321.694" transform="matrix(-0.8321 0.5547 -0.5547 -0.8321 374.5873 560.7495)" style="fill:#FFFFFF;" width="17.067" height="30.772"/>
	
		<rect x="131.231" y="311.458" transform="matrix(-0.7071 0.7071 -0.7071 -0.7071 481.1979 440.6632)" style="fill:#FFFFFF;" width="36.207" height="17.067"/>
	
		<rect x="310.434" y="268.78" transform="matrix(-0.7071 0.7071 -0.7071 -0.7071 756.9381 241.0923)" style="fill:#FFFFFF;" width="36.207" height="17.067"/>
	
		<rect x="157.903" y="257.69" transform="matrix(-0.5547 0.8321 -0.8321 -0.5547 485.9733 286.0587)" style="fill:#FFFFFF;" width="17.067" height="30.772"/>
	
		<rect x="369.069" y="284.324" transform="matrix(-0.5547 0.8321 -0.8321 -0.5547 836.4291 151.7625)" style="fill:#FFFFFF;" width="17.067" height="30.772"/>
	
		<rect x="247.455" y="305.18" transform="matrix(-0.8944 0.4472 -0.4472 -0.8944 629.9642 499.8053)" style="fill:#FFFFFF;" width="17.066" height="38.16"/>
	
		<rect x="354.105" y="315.203" transform="matrix(-0.9701 0.2425 -0.2425 -0.9701 795.1489 567.7103)" style="fill:#FFFFFF;" width="17.057" height="35.181"/>
	
		<rect x="196.252" y="319.452" transform="matrix(-0.2425 0.9701 -0.9701 -0.2425 581.4291 220.1081)" style="fill:#FFFFFF;" width="17.066" height="35.181"/>
	
		<rect x="255.987" y="262.522" transform="matrix(-0.4472 0.8944 -0.8944 -0.4472 634.6887 170.9443)" style="fill:#FFFFFF;" width="17.066" height="38.16"/>
</g>
<path d="M42.667,298.667h8.422l-0.657,50.645c-0.307,23.561,18.543,42.914,42.112,43.221c0.188,0,0.375,0,0.555,0h333.568
	c23.552-0.026,42.641-19.115,42.667-42.667v-51.2C492.885,298.641,511.974,279.552,512,256v-8.533
	c-0.077-70.656-57.344-127.923-128-128H128c-70.656,0.077-127.923,57.344-128,128V256C0.026,279.552,19.115,298.641,42.667,298.667z
	 M452.267,349.867c0,14.14-11.46,25.6-25.6,25.6H93.09c-14.14,0-25.6-11.46-25.6-25.6c0-0.111,0-0.222,0-0.333l0.666-51.2
	c20.215-1.493,38.613-12.22,49.869-29.082c9.071-13.628,24.363-21.811,40.738-21.786h185.984c16.768,0,40.567,8.755,49.263,21.803
	c12.22,18.372,32.819,29.406,54.886,29.397h3.371V349.867z M17.067,247.467c0.094-51.217,35.2-95.727,84.992-107.742l71.108,71.108
	l12.066-12.066l-61.995-61.995c1.596-0.068,3.157-0.239,4.762-0.239h30.601l74.3,74.3l12.066-12.066l-62.234-62.234h35.601
	l74.3,74.3l12.066-12.066l-62.234-62.234h35.601l74.3,74.3l12.066-12.066l-62.234-62.234h35.601l74.3,74.3l12.066-12.066
	l-62.234-62.234H384c61.235,0.068,110.865,49.698,110.933,110.933V256c0,14.14-11.46,25.6-25.6,25.6h-20.48
	c-16.375,0.017-31.667-8.166-40.73-21.803c-12.681-19.089-42.155-29.397-63.377-29.397H158.763
	c-22.076-0.026-42.701,11.017-54.929,29.397C94.78,273.417,79.505,281.6,63.147,281.6h-20.48c-14.14,0-25.6-11.46-25.6-25.6V247.467
	z"/>
<rect x="402.846" y="320.143" transform="matrix(-0.5549 0.8319 -0.8319 -0.5549 923.7401 163.1297)" width="30.771" height="17.066"/>
<rect x="200.01" y="281.587" transform="matrix(-0.2428 0.9701 -0.9701 -0.2428 551.8696 149.4645)" width="35.184" height="17.059"/>
<rect x="293.879" y="324.279" transform="matrix(-0.2428 0.9701 -0.9701 -0.2428 709.9438 111.4607)" width="35.184" height="17.059"/>
<rect x="93.874" y="321.694" transform="matrix(-0.8321 0.5547 -0.5547 -0.8321 374.5873 560.7495)" width="17.067" height="30.772"/>
<rect x="131.231" y="311.458" transform="matrix(-0.7071 0.7071 -0.7071 -0.7071 481.1979 440.6632)" width="36.207" height="17.067"/>
<rect x="310.434" y="268.78" transform="matrix(-0.7071 0.7071 -0.7071 -0.7071 756.9381 241.0923)" width="36.207" height="17.067"/>
<rect x="157.887" y="257.798" transform="matrix(-0.5549 0.8319 -0.8319 -0.5549 486.0325 286.3274)" width="17.066" height="30.771"/>
<rect x="369.155" y="284.484" transform="matrix(-0.5549 0.8319 -0.8319 -0.5549 836.7354 152.0662)" width="17.066" height="30.771"/>
<rect x="247.455" y="305.18" transform="matrix(-0.8944 0.4472 -0.4472 -0.8944 629.9642 499.8053)" width="17.066" height="38.16"/>
<rect x="354.105" y="315.203" transform="matrix(-0.9701 0.2425 -0.2425 -0.9701 795.1489 567.7103)" width="17.057" height="35.181"/>
<rect x="196.252" y="319.452" transform="matrix(-0.2425 0.9701 -0.9701 -0.2425 581.4291 220.1081)" width="17.066" height="35.181"/>
<rect x="255.987" y="262.522" transform="matrix(-0.4472 0.8944 -0.8944 -0.4472 634.6887 170.9443)" width="17.066" height="38.16"/>
<g>
</g>
<g>
</g>
<g>
</g>
<g>
</g>
<g>
</g>
<g>
</g>
<g>
</g>
<g>
</g>
<g>
</g>
<g>
</g>
<g>
</g>
<g>
</g>
<g>
</g>
<g>
</g>
<g>
</g>
</svg>
